<svg xmlns="http://www.w3.org/2000/svg" xmlns:xlink="http://www.w3.org/1999/xlink" width="150"
    zoomAndPan="magnify" viewBox="100 80 185 220" height="110" preserveAspectRatio="xMidYMid meet"
    version="1.0">
    <defs>
        <g />
        <clipPath id="872fdd4fd1">
            <path d="M 167 95.636719 L 199 95.636719 L 199 130 L 167 130 Z M 167 95.636719 "
                clip-rule="nonzero" />
        </clipPath>
        <clipPath id="8bb10f8aee">
            <path
                d="M 144.804688 116 L 224 116 L 224 215.636719 L 144.804688 215.636719 Z M 144.804688 116 "
                clip-rule="nonzero" />
        </clipPath>
        <clipPath id="bea54802ad">
            <path
                d="M 151 116 L 230.304688 116 L 230.304688 215.636719 L 151 215.636719 Z M 151 116 "
                clip-rule="nonzero" />
        </clipPath>
        <clipPath id="feaaec0736">
            <path d="M 175 95.636719 L 207 95.636719 L 207 130 L 175 130 Z M 175 95.636719 "
                clip-rule="nonzero" />
        </clipPath>
    </defs>
    <g clip-path="url(#872fdd4fd1)">
        <path stroke-linecap="round"
            transform="matrix(0.0521186, 0, 0, -0.0521286, 76.749016, 267.34973)" fill="none"
            stroke-linejoin="round"
            d="M 2306.208558 2673.567073 L 2306.208558 2995.712201 C 2306.208558 3141.610448 2188.013526 3259.932652 2042.087256 3259.932652 C 1896.235936 3259.932652 1777.965955 3141.610448 1777.965955 2995.712201 L 1777.965955 2673.567073 "
            stroke="#100f0f" stroke-width="68.362999" stroke-opacity="1" stroke-miterlimit="10" />
    </g>
    <g clip-path="url(#8bb10f8aee)">
        <path fill="#f79326"
            d="M 223.210938 211.304688 C 223.210938 213.683594 221.261719 215.628906 218.882812 215.628906 L 149.140625 215.628906 C 146.765625 215.628906 144.816406 213.683594 144.816406 211.304688 L 152.925781 121.101562 C 152.925781 118.726562 154.875 116.777344 157.25 116.777344 L 210.773438 116.777344 C 213.152344 116.777344 215.097656 118.726562 215.097656 121.101562 L 223.210938 211.304688 "
            fill-opacity="1" fill-rule="nonzero" />
    </g>
    <g clip-path="url(#bea54802ad)">
        <path fill="#f9af23"
            d="M 230.289062 211.304688 C 230.289062 213.683594 228.339844 215.628906 225.964844 215.628906 L 156.21875 215.628906 C 153.84375 215.628906 151.894531 213.683594 151.894531 211.304688 L 160.007812 121.101562 C 160.007812 118.726562 161.953125 116.777344 164.335938 116.777344 L 217.855469 116.777344 C 220.230469 116.777344 222.179688 118.726562 222.179688 121.101562 L 230.289062 211.304688 "
            fill-opacity="1" fill-rule="nonzero" />
    </g>
    <path fill="#f79326"
        d="M 181.210938 127.980469 C 181.210938 130.265625 179.359375 132.117188 177.078125 132.117188 C 174.792969 132.117188 172.9375 130.265625 172.9375 127.980469 C 172.9375 125.695312 174.792969 123.84375 177.078125 123.84375 C 179.359375 123.84375 181.210938 125.695312 181.210938 127.980469 "
        fill-opacity="1" fill-rule="nonzero" />
    <path fill="#f79326"
        d="M 209.246094 127.980469 C 209.246094 130.265625 207.390625 132.117188 205.113281 132.117188 C 202.824219 132.117188 200.972656 130.265625 200.972656 127.980469 C 200.972656 125.695312 202.824219 123.84375 205.113281 123.84375 C 207.390625 123.84375 209.246094 125.695312 209.246094 127.980469 "
        fill-opacity="1" fill-rule="nonzero" />
    <g clip-path="url(#feaaec0736)">
        <path stroke-linecap="round"
            transform="matrix(0.0521186, 0, 0, -0.0521286, 76.749016, 267.34973)" fill="none"
            stroke-linejoin="round"
            d="M 2457.980872 2673.567073 L 2457.980872 2995.712201 C 2457.980872 3141.610448 2339.78584 3259.932652 2193.93452 3259.932652 C 2048.00825 3259.932652 1929.813218 3141.610448 1929.813218 2995.712201 L 1929.813218 2673.567073 "
            stroke="#141515" stroke-width="68.362999" stroke-opacity="1" stroke-miterlimit="10" />
    </g>
    <g fill="#ffffff" fill-opacity="1">
        <g transform="translate(97.407149, 266.141995)">
            <g>
                <path
                    d="M 20.046875 -26.453125 C 19.910156 -26.234375 19.765625 -26.066406 19.609375 -25.953125 C 19.460938 -25.847656 19.28125 -25.796875 19.0625 -25.796875 C 18.8125 -25.796875 18.519531 -25.921875 18.1875 -26.171875 C 17.851562 -26.421875 17.429688 -26.691406 16.921875 -26.984375 C 16.421875 -27.285156 15.816406 -27.5625 15.109375 -27.8125 C 14.398438 -28.0625 13.539062 -28.1875 12.53125 -28.1875 C 11.582031 -28.1875 10.75 -28.054688 10.03125 -27.796875 C 9.3125 -27.546875 8.707031 -27.203125 8.21875 -26.765625 C 7.726562 -26.328125 7.359375 -25.8125 7.109375 -25.21875 C 6.859375 -24.625 6.734375 -23.988281 6.734375 -23.3125 C 6.734375 -22.425781 6.945312 -21.695312 7.375 -21.125 C 7.8125 -20.550781 8.382812 -20.054688 9.09375 -19.640625 C 9.800781 -19.234375 10.601562 -18.878906 11.5 -18.578125 C 12.394531 -18.285156 13.3125 -17.976562 14.25 -17.65625 C 15.195312 -17.332031 16.117188 -16.96875 17.015625 -16.5625 C 17.910156 -16.164062 18.710938 -15.660156 19.421875 -15.046875 C 20.128906 -14.441406 20.695312 -13.691406 21.125 -12.796875 C 21.550781 -11.910156 21.765625 -10.816406 21.765625 -9.515625 C 21.765625 -8.148438 21.53125 -6.863281 21.0625 -5.65625 C 20.601562 -4.445312 19.925781 -3.398438 19.03125 -2.515625 C 18.132812 -1.628906 17.03125 -0.929688 15.71875 -0.421875 C 14.414062 0.0859375 12.929688 0.34375 11.265625 0.34375 C 9.222656 0.34375 7.367188 -0.0195312 5.703125 -0.75 C 4.046875 -1.488281 2.625 -2.484375 1.4375 -3.734375 L 2.671875 -5.75 C 2.785156 -5.914062 2.925781 -6.050781 3.09375 -6.15625 C 3.257812 -6.269531 3.445312 -6.328125 3.65625 -6.328125 C 3.84375 -6.328125 4.054688 -6.25 4.296875 -6.09375 C 4.535156 -5.9375 4.804688 -5.742188 5.109375 -5.515625 C 5.421875 -5.285156 5.773438 -5.03125 6.171875 -4.75 C 6.566406 -4.46875 7.015625 -4.207031 7.515625 -3.96875 C 8.015625 -3.738281 8.585938 -3.546875 9.234375 -3.390625 C 9.878906 -3.242188 10.601562 -3.171875 11.40625 -3.171875 C 12.40625 -3.171875 13.300781 -3.304688 14.09375 -3.578125 C 14.882812 -3.859375 15.550781 -4.25 16.09375 -4.75 C 16.644531 -5.257812 17.066406 -5.863281 17.359375 -6.5625 C 17.648438 -7.257812 17.796875 -8.039062 17.796875 -8.90625 C 17.796875 -9.851562 17.578125 -10.628906 17.140625 -11.234375 C 16.710938 -11.835938 16.148438 -12.34375 15.453125 -12.75 C 14.753906 -13.164062 13.953125 -13.515625 13.046875 -13.796875 C 12.140625 -14.078125 11.21875 -14.367188 10.28125 -14.671875 C 9.351562 -14.972656 8.4375 -15.316406 7.53125 -15.703125 C 6.625 -16.097656 5.816406 -16.609375 5.109375 -17.234375 C 4.410156 -17.867188 3.847656 -18.65625 3.421875 -19.59375 C 2.992188 -20.53125 2.78125 -21.695312 2.78125 -23.09375 C 2.78125 -24.195312 2.992188 -25.265625 3.421875 -26.296875 C 3.847656 -27.335938 4.472656 -28.257812 5.296875 -29.0625 C 6.128906 -29.863281 7.144531 -30.503906 8.34375 -30.984375 C 9.550781 -31.460938 10.9375 -31.703125 12.5 -31.703125 C 14.25 -31.703125 15.84375 -31.425781 17.28125 -30.875 C 18.71875 -30.320312 19.984375 -29.519531 21.078125 -28.46875 Z M 20.046875 -26.453125 " />
            </g>
        </g>
    </g>
    <g fill="#ffffff" fill-opacity="1">
        <g transform="translate(120.489325, 266.141995)">
            <g>
                <path
                    d="M 17.921875 -13.5 C 17.921875 -14.40625 17.789062 -15.234375 17.53125 -15.984375 C 17.28125 -16.734375 16.910156 -17.378906 16.421875 -17.921875 C 15.929688 -18.472656 15.335938 -18.898438 14.640625 -19.203125 C 13.941406 -19.503906 13.144531 -19.65625 12.25 -19.65625 C 10.382812 -19.65625 8.90625 -19.109375 7.8125 -18.015625 C 6.726562 -16.929688 6.054688 -15.425781 5.796875 -13.5 Z M 21.078125 -3.109375 C 20.585938 -2.523438 20.007812 -2.015625 19.34375 -1.578125 C 18.675781 -1.148438 17.957031 -0.796875 17.1875 -0.515625 C 16.425781 -0.242188 15.632812 -0.0390625 14.8125 0.09375 C 14 0.238281 13.191406 0.3125 12.390625 0.3125 C 10.859375 0.3125 9.445312 0.0507812 8.15625 -0.46875 C 6.863281 -0.988281 5.742188 -1.75 4.796875 -2.75 C 3.859375 -3.75 3.125 -4.984375 2.59375 -6.453125 C 2.070312 -7.929688 1.8125 -9.625 1.8125 -11.53125 C 1.8125 -13.082031 2.046875 -14.523438 2.515625 -15.859375 C 2.992188 -17.203125 3.675781 -18.363281 4.5625 -19.34375 C 5.457031 -20.332031 6.546875 -21.109375 7.828125 -21.671875 C 9.117188 -22.234375 10.566406 -22.515625 12.171875 -22.515625 C 13.492188 -22.515625 14.71875 -22.289062 15.84375 -21.84375 C 16.976562 -21.40625 17.957031 -20.765625 18.78125 -19.921875 C 19.601562 -19.085938 20.25 -18.050781 20.71875 -16.8125 C 21.1875 -15.582031 21.421875 -14.179688 21.421875 -12.609375 C 21.421875 -11.992188 21.351562 -11.582031 21.21875 -11.375 C 21.09375 -11.175781 20.847656 -11.078125 20.484375 -11.078125 L 5.671875 -11.078125 C 5.710938 -9.671875 5.90625 -8.445312 6.25 -7.40625 C 6.59375 -6.375 7.066406 -5.507812 7.671875 -4.8125 C 8.285156 -4.125 9.015625 -3.609375 9.859375 -3.265625 C 10.710938 -2.921875 11.664062 -2.75 12.71875 -2.75 C 13.695312 -2.75 14.535156 -2.863281 15.234375 -3.09375 C 15.941406 -3.320312 16.550781 -3.566406 17.0625 -3.828125 C 17.570312 -4.085938 18 -4.332031 18.34375 -4.5625 C 18.6875 -4.789062 18.984375 -4.90625 19.234375 -4.90625 C 19.554688 -4.90625 19.804688 -4.78125 19.984375 -4.53125 Z M 21.078125 -3.109375 " />
            </g>
        </g>
    </g>
    <g fill="#ffffff" fill-opacity="1">
        <g transform="translate(142.937007, 266.141995)">
            <g>
                <path
                    d="M 6.78125 -17.71875 C 7.476562 -19.238281 8.335938 -20.425781 9.359375 -21.28125 C 10.378906 -22.132812 11.628906 -22.5625 13.109375 -22.5625 C 13.578125 -22.5625 14.023438 -22.507812 14.453125 -22.40625 C 14.878906 -22.300781 15.265625 -22.140625 15.609375 -21.921875 L 15.3125 -19.015625 C 15.226562 -18.648438 15.007812 -18.46875 14.65625 -18.46875 C 14.457031 -18.46875 14.160156 -18.507812 13.765625 -18.59375 C 13.367188 -18.6875 12.921875 -18.734375 12.421875 -18.734375 C 11.722656 -18.734375 11.097656 -18.628906 10.546875 -18.421875 C 10.003906 -18.222656 9.519531 -17.921875 9.09375 -17.515625 C 8.664062 -17.117188 8.28125 -16.625 7.9375 -16.03125 C 7.59375 -15.4375 7.28125 -14.757812 7 -14 L 7 0 L 3.078125 0 L 3.078125 -22.171875 L 5.3125 -22.171875 C 5.738281 -22.171875 6.03125 -22.085938 6.1875 -21.921875 C 6.351562 -21.765625 6.460938 -21.488281 6.515625 -21.09375 Z M 6.78125 -17.71875 " />
            </g>
        </g>
    </g>
    <g fill="#ffffff" fill-opacity="1">
        <g transform="translate(158.208397, 266.141995)">
            <g>
                <path
                    d="M 7 -5.34375 C 7.71875 -4.375 8.503906 -3.691406 9.359375 -3.296875 C 10.210938 -2.910156 11.148438 -2.71875 12.171875 -2.71875 C 14.253906 -2.71875 15.847656 -3.453125 16.953125 -4.921875 C 18.066406 -6.398438 18.625 -8.597656 18.625 -11.515625 C 18.625 -14.222656 18.128906 -16.210938 17.140625 -17.484375 C 16.160156 -18.765625 14.757812 -19.40625 12.9375 -19.40625 C 11.664062 -19.40625 10.554688 -19.113281 9.609375 -18.53125 C 8.671875 -17.945312 7.800781 -17.125 7 -16.0625 Z M 7 -18.96875 C 7.9375 -20.050781 8.988281 -20.910156 10.15625 -21.546875 C 11.332031 -22.191406 12.6875 -22.515625 14.21875 -22.515625 C 15.519531 -22.515625 16.691406 -22.265625 17.734375 -21.765625 C 18.773438 -21.273438 19.660156 -20.554688 20.390625 -19.609375 C 21.117188 -18.671875 21.675781 -17.53125 22.0625 -16.1875 C 22.457031 -14.851562 22.65625 -13.34375 22.65625 -11.65625 C 22.65625 -9.863281 22.429688 -8.226562 21.984375 -6.75 C 21.546875 -5.28125 20.914062 -4.023438 20.09375 -2.984375 C 19.269531 -1.941406 18.265625 -1.128906 17.078125 -0.546875 C 15.898438 0.0234375 14.578125 0.3125 13.109375 0.3125 C 11.648438 0.3125 10.421875 0.0390625 9.421875 -0.5 C 8.421875 -1.050781 7.550781 -1.832031 6.8125 -2.84375 L 6.609375 -0.828125 C 6.492188 -0.273438 6.160156 0 5.609375 0 L 3.078125 0 L 3.078125 -32.234375 L 7 -32.234375 Z M 7 -18.96875 " />
            </g>
        </g>
    </g>
    <g fill="#ffffff" fill-opacity="1">
        <g transform="translate(182.056332, 266.141995)">
            <g>
                <path
                    d="M 20.046875 -26.453125 C 19.910156 -26.234375 19.765625 -26.066406 19.609375 -25.953125 C 19.460938 -25.847656 19.28125 -25.796875 19.0625 -25.796875 C 18.8125 -25.796875 18.519531 -25.921875 18.1875 -26.171875 C 17.851562 -26.421875 17.429688 -26.691406 16.921875 -26.984375 C 16.421875 -27.285156 15.816406 -27.5625 15.109375 -27.8125 C 14.398438 -28.0625 13.539062 -28.1875 12.53125 -28.1875 C 11.582031 -28.1875 10.75 -28.054688 10.03125 -27.796875 C 9.3125 -27.546875 8.707031 -27.203125 8.21875 -26.765625 C 7.726562 -26.328125 7.359375 -25.8125 7.109375 -25.21875 C 6.859375 -24.625 6.734375 -23.988281 6.734375 -23.3125 C 6.734375 -22.425781 6.945312 -21.695312 7.375 -21.125 C 7.8125 -20.550781 8.382812 -20.054688 9.09375 -19.640625 C 9.800781 -19.234375 10.601562 -18.878906 11.5 -18.578125 C 12.394531 -18.285156 13.3125 -17.976562 14.25 -17.65625 C 15.195312 -17.332031 16.117188 -16.96875 17.015625 -16.5625 C 17.910156 -16.164062 18.710938 -15.660156 19.421875 -15.046875 C 20.128906 -14.441406 20.695312 -13.691406 21.125 -12.796875 C 21.550781 -11.910156 21.765625 -10.816406 21.765625 -9.515625 C 21.765625 -8.148438 21.53125 -6.863281 21.0625 -5.65625 C 20.601562 -4.445312 19.925781 -3.398438 19.03125 -2.515625 C 18.132812 -1.628906 17.03125 -0.929688 15.71875 -0.421875 C 14.414062 0.0859375 12.929688 0.34375 11.265625 0.34375 C 9.222656 0.34375 7.367188 -0.0195312 5.703125 -0.75 C 4.046875 -1.488281 2.625 -2.484375 1.4375 -3.734375 L 2.671875 -5.75 C 2.785156 -5.914062 2.925781 -6.050781 3.09375 -6.15625 C 3.257812 -6.269531 3.445312 -6.328125 3.65625 -6.328125 C 3.84375 -6.328125 4.054688 -6.25 4.296875 -6.09375 C 4.535156 -5.9375 4.804688 -5.742188 5.109375 -5.515625 C 5.421875 -5.285156 5.773438 -5.03125 6.171875 -4.75 C 6.566406 -4.46875 7.015625 -4.207031 7.515625 -3.96875 C 8.015625 -3.738281 8.585938 -3.546875 9.234375 -3.390625 C 9.878906 -3.242188 10.601562 -3.171875 11.40625 -3.171875 C 12.40625 -3.171875 13.300781 -3.304688 14.09375 -3.578125 C 14.882812 -3.859375 15.550781 -4.25 16.09375 -4.75 C 16.644531 -5.257812 17.066406 -5.863281 17.359375 -6.5625 C 17.648438 -7.257812 17.796875 -8.039062 17.796875 -8.90625 C 17.796875 -9.851562 17.578125 -10.628906 17.140625 -11.234375 C 16.710938 -11.835938 16.148438 -12.34375 15.453125 -12.75 C 14.753906 -13.164062 13.953125 -13.515625 13.046875 -13.796875 C 12.140625 -14.078125 11.21875 -14.367188 10.28125 -14.671875 C 9.351562 -14.972656 8.4375 -15.316406 7.53125 -15.703125 C 6.625 -16.097656 5.816406 -16.609375 5.109375 -17.234375 C 4.410156 -17.867188 3.847656 -18.65625 3.421875 -19.59375 C 2.992188 -20.53125 2.78125 -21.695312 2.78125 -23.09375 C 2.78125 -24.195312 2.992188 -25.265625 3.421875 -26.296875 C 3.847656 -27.335938 4.472656 -28.257812 5.296875 -29.0625 C 6.128906 -29.863281 7.144531 -30.503906 8.34375 -30.984375 C 9.550781 -31.460938 10.9375 -31.703125 12.5 -31.703125 C 14.25 -31.703125 15.84375 -31.425781 17.28125 -30.875 C 18.71875 -30.320312 19.984375 -29.519531 21.078125 -28.46875 Z M 20.046875 -26.453125 " />
            </g>
        </g>
    </g>
    <g fill="#ffffff" fill-opacity="1">
        <g transform="translate(205.138503, 266.141995)">
            <g>
                <path
                    d="M 7 -19.21875 C 7.945312 -20.21875 8.992188 -21.015625 10.140625 -21.609375 C 11.296875 -22.210938 12.628906 -22.515625 14.140625 -22.515625 C 15.347656 -22.515625 16.414062 -22.3125 17.34375 -21.90625 C 18.269531 -21.507812 19.039062 -20.941406 19.65625 -20.203125 C 20.28125 -19.472656 20.75 -18.585938 21.0625 -17.546875 C 21.382812 -16.515625 21.546875 -15.367188 21.546875 -14.109375 L 21.546875 0 L 17.640625 0 L 17.640625 -14.109375 C 17.640625 -15.785156 17.253906 -17.085938 16.484375 -18.015625 C 15.722656 -18.941406 14.5625 -19.40625 13 -19.40625 C 11.84375 -19.40625 10.765625 -19.128906 9.765625 -18.578125 C 8.765625 -18.023438 7.84375 -17.273438 7 -16.328125 L 7 0 L 3.078125 0 L 3.078125 -32.234375 L 7 -32.234375 Z M 7 -19.21875 " />
            </g>
        </g>
    </g>
    <g fill="#ffffff" fill-opacity="1">
        <g transform="translate(228.898931, 266.141995)">
            <g>
                <path
                    d="M 12.421875 -22.515625 C 14.046875 -22.515625 15.503906 -22.242188 16.796875 -21.703125 C 18.097656 -21.160156 19.207031 -20.394531 20.125 -19.40625 C 21.050781 -18.414062 21.757812 -17.21875 22.25 -15.8125 C 22.738281 -14.40625 22.984375 -12.832031 22.984375 -11.09375 C 22.984375 -9.34375 22.738281 -7.765625 22.25 -6.359375 C 21.757812 -4.960938 21.050781 -3.769531 20.125 -2.78125 C 19.207031 -1.789062 18.097656 -1.023438 16.796875 -0.484375 C 15.503906 0.046875 14.046875 0.3125 12.421875 0.3125 C 10.796875 0.3125 9.328125 0.046875 8.015625 -0.484375 C 6.710938 -1.023438 5.597656 -1.789062 4.671875 -2.78125 C 3.753906 -3.769531 3.050781 -4.960938 2.5625 -6.359375 C 2.082031 -7.765625 1.84375 -9.34375 1.84375 -11.09375 C 1.84375 -12.832031 2.082031 -14.40625 2.5625 -15.8125 C 3.050781 -17.21875 3.753906 -18.414062 4.671875 -19.40625 C 5.597656 -20.394531 6.710938 -21.160156 8.015625 -21.703125 C 9.328125 -22.242188 10.796875 -22.515625 12.421875 -22.515625 Z M 12.421875 -2.734375 C 14.617188 -2.734375 16.253906 -3.46875 17.328125 -4.9375 C 18.410156 -6.40625 18.953125 -8.453125 18.953125 -11.078125 C 18.953125 -13.710938 18.410156 -15.765625 17.328125 -17.234375 C 16.253906 -18.710938 14.617188 -19.453125 12.421875 -19.453125 C 11.316406 -19.453125 10.351562 -19.257812 9.53125 -18.875 C 8.707031 -18.5 8.019531 -17.953125 7.46875 -17.234375 C 6.925781 -16.523438 6.519531 -15.648438 6.25 -14.609375 C 5.976562 -13.566406 5.84375 -12.390625 5.84375 -11.078125 C 5.84375 -8.453125 6.382812 -6.40625 7.46875 -4.9375 C 8.5625 -3.46875 10.210938 -2.734375 12.421875 -2.734375 Z M 12.421875 -2.734375 " />
            </g>
        </g>
    </g>
    <g fill="#ffffff" fill-opacity="1">
        <g transform="translate(253.053173, 266.141995)">
            <g>
                <path
                    d="M 7 -5.34375 C 7.71875 -4.375 8.5 -3.691406 9.34375 -3.296875 C 10.1875 -2.910156 11.132812 -2.71875 12.1875 -2.71875 C 14.257812 -2.71875 15.847656 -3.453125 16.953125 -4.921875 C 18.066406 -6.398438 18.625 -8.5 18.625 -11.21875 C 18.625 -12.664062 18.492188 -13.90625 18.234375 -14.9375 C 17.984375 -15.976562 17.613281 -16.828125 17.125 -17.484375 C 16.644531 -18.148438 16.054688 -18.632812 15.359375 -18.9375 C 14.660156 -19.25 13.863281 -19.40625 12.96875 -19.40625 C 11.707031 -19.40625 10.597656 -19.113281 9.640625 -18.53125 C 8.679688 -17.945312 7.800781 -17.125 7 -16.0625 Z M 6.8125 -18.734375 C 7.738281 -19.878906 8.8125 -20.800781 10.03125 -21.5 C 11.257812 -22.207031 12.664062 -22.5625 14.25 -22.5625 C 15.53125 -22.5625 16.6875 -22.316406 17.71875 -21.828125 C 18.757812 -21.335938 19.644531 -20.613281 20.375 -19.65625 C 21.101562 -18.707031 21.664062 -17.523438 22.0625 -16.109375 C 22.457031 -14.691406 22.65625 -13.0625 22.65625 -11.21875 C 22.65625 -9.59375 22.429688 -8.070312 21.984375 -6.65625 C 21.546875 -5.25 20.914062 -4.03125 20.09375 -3 C 19.269531 -1.976562 18.265625 -1.171875 17.078125 -0.578125 C 15.890625 0.015625 14.550781 0.3125 13.0625 0.3125 C 11.707031 0.3125 10.546875 0.0820312 9.578125 -0.375 C 8.609375 -0.84375 7.75 -1.484375 7 -2.296875 L 7 7.5 L 3.078125 7.5 L 3.078125 -22.171875 L 5.421875 -22.171875 C 5.984375 -22.171875 6.328125 -21.898438 6.453125 -21.359375 Z M 6.8125 -18.734375 " />
            </g>
        </g>
    </g>
</svg>