<svg xmlns="http://www.w3.org/2000/svg" xmlns:xlink="http://www.w3.org/1999/xlink" width="135"
    zoomAndPan="magnify" viewBox="100 80 180 200" height="130" preserveAspectRatio="xMidYMid meet"
    version="1.0">
    <defs>
        <g />
        <clipPath id="a958756581">
            <path d="M 167 95.636719 L 199 95.636719 L 199 130 L 167 130 Z M 167 95.636719 "
                clip-rule="nonzero" />
        </clipPath>
        <clipPath id="c9b7f53621">
            <path
                d="M 144.804688 116 L 224 116 L 224 215.636719 L 144.804688 215.636719 Z M 144.804688 116 "
                clip-rule="nonzero" />
        </clipPath>
        <clipPath id="62dd4d7116">
            <path
                d="M 151 116 L 230.304688 116 L 230.304688 215.636719 L 151 215.636719 Z M 151 116 "
                clip-rule="nonzero" />
        </clipPath>
        <clipPath id="6a6ff299fc">
            <path d="M 175 95.636719 L 207 95.636719 L 207 130 L 175 130 Z M 175 95.636719 "
                clip-rule="nonzero" />
        </clipPath>
    </defs>
    <rect x="-37.5" width="450" fill="rgb(113 63 18)" y="-37.499999" height="449.999989"
        fill-opacity="1" />
    <rect x="-37.5" width="450" fill="rgb(113 63 18)" y="-37.499999" height="449.999989"
        fill-opacity="1" />
    <rect x="-37.5" width="450" fill="rgb(113 63 18)" y="-37.499999" height="449.999989"
        fill-opacity="1" />
    <g clip-path="url(#a958756581)">
        <path stroke-linecap="round"
            transform="matrix(0.0521186, 0, 0, -0.0521286, 76.749023, 267.34973)" fill="none"
            stroke-linejoin="round"
            d="M 2306.208738 2673.567073 L 2306.208738 2995.712201 C 2306.208738 3141.610448 2188.01369 3259.932652 2042.0874 3259.932652 C 1896.23606 3259.932652 1777.966062 3141.610448 1777.966062 2995.712201 L 1777.966062 2673.567073 "
            stroke="#100f0f" stroke-width="68.362999" stroke-opacity="1" stroke-miterlimit="10" />
    </g>
    <g clip-path="url(#c9b7f53621)">
        <path fill="#f7b808"
            d="M 223.210938 211.304688 C 223.210938 213.683594 221.261719 215.628906 218.882812 215.628906 L 149.140625 215.628906 C 146.765625 215.628906 144.816406 213.683594 144.816406 211.304688 L 152.925781 121.101562 C 152.925781 118.726562 154.875 116.777344 157.25 116.777344 L 210.773438 116.777344 C 213.152344 116.777344 215.097656 118.726562 215.097656 121.101562 L 223.210938 211.304688 "
            fill-opacity="1" fill-rule="nonzero" />
    </g>
    <g clip-path="url(#62dd4d7116)">
        <path fill="#f79326"
            d="M 230.289062 211.304688 C 230.289062 213.683594 228.339844 215.628906 225.964844 215.628906 L 156.21875 215.628906 C 153.84375 215.628906 151.894531 213.683594 151.894531 211.304688 L 160.007812 121.101562 C 160.007812 118.726562 161.953125 116.777344 164.335938 116.777344 L 217.855469 116.777344 C 220.230469 116.777344 222.179688 118.726562 222.179688 121.101562 L 230.289062 211.304688 "
            fill-opacity="1" fill-rule="nonzero" />
    </g>
    <path fill="#f7b808"
        d="M 181.210938 127.980469 C 181.210938 130.265625 179.359375 132.117188 177.078125 132.117188 C 174.792969 132.117188 172.9375 130.265625 172.9375 127.980469 C 172.9375 125.695312 174.792969 123.84375 177.078125 123.84375 C 179.359375 123.84375 181.210938 125.695312 181.210938 127.980469 "
        fill-opacity="1" fill-rule="nonzero" />
    <path fill="#f7b808"
        d="M 209.246094 127.980469 C 209.246094 130.265625 207.390625 132.117188 205.113281 132.117188 C 202.824219 132.117188 200.972656 130.265625 200.972656 127.980469 C 200.972656 125.695312 202.824219 123.84375 205.113281 123.84375 C 207.390625 123.84375 209.246094 125.695312 209.246094 127.980469 "
        fill-opacity="1" fill-rule="nonzero" />
    <g clip-path="url(#6a6ff299fc)">
        <path stroke-linecap="round"
            transform="matrix(0.0521186, 0, 0, -0.0521286, 76.749023, 267.34973)" fill="none"
            stroke-linejoin="round"
            d="M 2457.981073 2673.567073 L 2457.981073 2995.712201 C 2457.981073 3141.610448 2339.786025 3259.932652 2193.934685 3259.932652 C 2048.008395 3259.932652 1929.813347 3141.610448 1929.813347 2995.712201 L 1929.813347 2673.567073 "
            stroke="#141515" stroke-width="68.362999" stroke-opacity="1" stroke-miterlimit="10" />
    </g>
    <g fill="#f1f5f9" fill-opacity="1">
        <g transform="translate(118.618547, 242.948802)">
            <g>
                <path
                    d="M 8.390625 -23.5625 C 9.347656 -23.5625 10.101562 -23.457031 10.65625 -23.25 C 11.21875 -23.039062 11.796875 -22.738281 12.390625 -22.34375 C 12.867188 -22.039062 13.238281 -21.890625 13.5 -21.890625 C 13.695312 -21.890625 13.847656 -22.003906 13.953125 -22.234375 C 14.066406 -22.460938 14.15625 -22.828125 14.21875 -23.328125 L 14.96875 -23.328125 C 14.863281 -22.054688 14.8125 -19.828125 14.8125 -16.640625 L 14.0625 -16.640625 C 13.925781 -18.410156 13.414062 -19.898438 12.53125 -21.109375 C 11.644531 -22.328125 10.363281 -22.9375 8.6875 -22.9375 C 7.5 -22.9375 6.535156 -22.582031 5.796875 -21.875 C 5.054688 -21.164062 4.6875 -20.253906 4.6875 -19.140625 C 4.6875 -18.304688 4.875 -17.582031 5.25 -16.96875 C 5.632812 -16.363281 6.125 -15.84375 6.71875 -15.40625 C 7.3125 -14.96875 8.148438 -14.410156 9.234375 -13.734375 L 10.1875 -13.140625 C 11.5625 -12.285156 12.644531 -11.535156 13.4375 -10.890625 C 14.238281 -10.242188 14.878906 -9.503906 15.359375 -8.671875 C 15.847656 -7.847656 16.09375 -6.878906 16.09375 -5.765625 C 16.09375 -3.773438 15.4375 -2.238281 14.125 -1.15625 C 12.8125 -0.0820312 11.148438 0.453125 9.140625 0.453125 C 8.085938 0.453125 7.226562 0.34375 6.5625 0.125 C 5.894531 -0.09375 5.257812 -0.382812 4.65625 -0.75 C 4.175781 -1.0625 3.800781 -1.21875 3.53125 -1.21875 C 3.34375 -1.21875 3.191406 -1.101562 3.078125 -0.875 C 2.972656 -0.644531 2.882812 -0.273438 2.8125 0.234375 L 2.0625 0.234375 C 2.144531 -0.972656 2.1875 -3.597656 2.1875 -7.640625 L 2.953125 -7.640625 C 3.097656 -5.429688 3.640625 -3.640625 4.578125 -2.265625 C 5.523438 -0.890625 6.96875 -0.203125 8.90625 -0.203125 C 10.09375 -0.203125 11.097656 -0.566406 11.921875 -1.296875 C 12.753906 -2.023438 13.171875 -3.109375 13.171875 -4.546875 C 13.171875 -5.773438 12.757812 -6.8125 11.9375 -7.65625 C 11.125 -8.507812 9.832031 -9.472656 8.0625 -10.546875 C 6.769531 -11.335938 5.722656 -12.035156 4.921875 -12.640625 C 4.128906 -13.253906 3.484375 -13.992188 2.984375 -14.859375 C 2.484375 -15.722656 2.234375 -16.734375 2.234375 -17.890625 C 2.234375 -19.722656 2.820312 -21.125 4 -22.09375 C 5.175781 -23.070312 6.640625 -23.5625 8.390625 -23.5625 Z M 8.390625 -23.5625 " />
            </g>
        </g>
    </g>
    <g fill="#f1f5f9" fill-opacity="1">
        <g transform="translate(135.814141, 242.948802)">
            <g>
                <path
                    d="M 15.171875 -3.9375 C 14.773438 -2.726562 14.035156 -1.691406 12.953125 -0.828125 C 11.878906 0.0234375 10.578125 0.453125 9.046875 0.453125 C 7.492188 0.453125 6.148438 0.0976562 5.015625 -0.609375 C 3.878906 -1.316406 3.007812 -2.304688 2.40625 -3.578125 C 1.800781 -4.859375 1.5 -6.34375 1.5 -8.03125 C 1.5 -9.925781 1.804688 -11.570312 2.421875 -12.96875 C 3.035156 -14.375 3.898438 -15.453125 5.015625 -16.203125 C 6.128906 -16.953125 7.425781 -17.328125 8.90625 -17.328125 C 10.875 -17.328125 12.390625 -16.734375 13.453125 -15.546875 C 14.515625 -14.359375 15.046875 -12.550781 15.046875 -10.125 L 4.78125 -10.125 C 4.71875 -9.507812 4.6875 -8.8125 4.6875 -8.03125 C 4.6875 -6.582031 4.921875 -5.320312 5.390625 -4.25 C 5.859375 -3.1875 6.476562 -2.363281 7.25 -1.78125 C 8.03125 -1.207031 8.847656 -0.921875 9.703125 -0.921875 C 10.742188 -0.921875 11.671875 -1.171875 12.484375 -1.671875 C 13.296875 -2.171875 13.972656 -3.007812 14.515625 -4.1875 Z M 8.78125 -16.703125 C 7.75 -16.703125 6.863281 -16.203125 6.125 -15.203125 C 5.382812 -14.203125 4.925781 -12.71875 4.75 -10.75 L 11.890625 -10.75 C 11.929688 -12.445312 11.6875 -13.863281 11.15625 -15 C 10.625 -16.132812 9.832031 -16.703125 8.78125 -16.703125 Z M 8.78125 -16.703125 " />
            </g>
        </g>
    </g>
    <g fill="#f1f5f9" fill-opacity="1">
        <g transform="translate(151.89611, 242.948802)">
            <g>
                <path
                    d="M 11.140625 -17.328125 C 12.015625 -17.328125 12.726562 -17.078125 13.28125 -16.578125 C 13.84375 -16.078125 14.125 -15.46875 14.125 -14.75 C 14.125 -14.175781 13.953125 -13.6875 13.609375 -13.28125 C 13.273438 -12.882812 12.820312 -12.6875 12.25 -12.6875 C 11.769531 -12.6875 11.359375 -12.835938 11.015625 -13.140625 C 10.679688 -13.441406 10.515625 -13.859375 10.515625 -14.390625 C 10.515625 -15.109375 10.882812 -15.695312 11.625 -16.15625 C 11.476562 -16.375 11.25 -16.484375 10.9375 -16.484375 C 10.09375 -16.484375 9.316406 -16.148438 8.609375 -15.484375 C 7.910156 -14.816406 7.363281 -14 6.96875 -13.03125 C 6.582031 -12.070312 6.390625 -11.171875 6.390625 -10.328125 L 6.390625 -3.375 C 6.390625 -2.375 6.675781 -1.675781 7.25 -1.28125 C 7.832031 -0.882812 8.703125 -0.6875 9.859375 -0.6875 L 9.859375 0 L 9.078125 -0.03125 C 6.847656 -0.09375 5.425781 -0.125 4.8125 -0.125 C 4.25 -0.125 2.960938 -0.0820312 0.953125 0 L 0.953125 -0.6875 C 1.867188 -0.6875 2.507812 -0.851562 2.875 -1.1875 C 3.25 -1.53125 3.4375 -2.148438 3.4375 -3.046875 L 3.4375 -13.296875 C 3.4375 -14.304688 3.25 -15.039062 2.875 -15.5 C 2.507812 -15.957031 1.867188 -16.1875 0.953125 -16.1875 L 0.953125 -16.875 C 1.648438 -16.8125 2.328125 -16.78125 2.984375 -16.78125 C 4.359375 -16.78125 5.492188 -16.929688 6.390625 -17.234375 L 6.390625 -13.140625 C 6.785156 -14.234375 7.410156 -15.203125 8.265625 -16.046875 C 9.128906 -16.898438 10.085938 -17.328125 11.140625 -17.328125 Z M 11.140625 -17.328125 " />
            </g>
        </g>
    </g>
    <g fill="#f1f5f9" fill-opacity="1">
        <g transform="translate(165.98009, 242.948802)">
            <g>
                <path
                    d="M 10.6875 -17.328125 C 12.539062 -17.328125 14.039062 -16.5625 15.1875 -15.03125 C 16.332031 -13.507812 16.90625 -11.304688 16.90625 -8.421875 C 16.90625 -6.515625 16.578125 -4.894531 15.921875 -3.5625 C 15.265625 -2.238281 14.382812 -1.238281 13.28125 -0.5625 C 12.175781 0.113281 10.945312 0.453125 9.59375 0.453125 C 8.789062 0.453125 8.007812 0.289062 7.25 -0.03125 C 6.5 -0.363281 5.84375 -0.832031 5.28125 -1.4375 L 2.953125 0.53125 L 2.390625 0.296875 C 2.546875 -0.253906 2.625 -0.890625 2.625 -1.609375 L 2.625 -21.71875 C 2.625 -22.726562 2.4375 -23.460938 2.0625 -23.921875 C 1.6875 -24.378906 1.039062 -24.609375 0.125 -24.609375 L 0.125 -25.296875 C 0.820312 -25.234375 1.5 -25.203125 2.15625 -25.203125 C 3.539062 -25.203125 4.675781 -25.351562 5.5625 -25.65625 L 5.5625 -13.828125 C 6.050781 -14.941406 6.75 -15.800781 7.65625 -16.40625 C 8.5625 -17.019531 9.570312 -17.328125 10.6875 -17.328125 Z M 9.34375 -0.296875 C 10.800781 -0.296875 11.894531 -0.957031 12.625 -2.28125 C 13.363281 -3.601562 13.734375 -5.648438 13.734375 -8.421875 C 13.734375 -11.085938 13.40625 -13.070312 12.75 -14.375 C 12.09375 -15.6875 11.085938 -16.34375 9.734375 -16.34375 C 8.816406 -16.34375 7.972656 -15.988281 7.203125 -15.28125 C 6.441406 -14.570312 5.894531 -13.570312 5.5625 -12.28125 L 5.5625 -1.90625 C 6.070312 -1.375 6.65625 -0.972656 7.3125 -0.703125 C 7.96875 -0.429688 8.644531 -0.296875 9.34375 -0.296875 Z M 9.34375 -0.296875 " />
            </g>
        </g>
    </g>
    <g fill="#f1f5f9" fill-opacity="1">
        <g transform="translate(183.929025, 242.948802)">
            <g>
                <path
                    d="M 8.390625 -23.5625 C 9.347656 -23.5625 10.101562 -23.457031 10.65625 -23.25 C 11.21875 -23.039062 11.796875 -22.738281 12.390625 -22.34375 C 12.867188 -22.039062 13.238281 -21.890625 13.5 -21.890625 C 13.695312 -21.890625 13.847656 -22.003906 13.953125 -22.234375 C 14.066406 -22.460938 14.15625 -22.828125 14.21875 -23.328125 L 14.96875 -23.328125 C 14.863281 -22.054688 14.8125 -19.828125 14.8125 -16.640625 L 14.0625 -16.640625 C 13.925781 -18.410156 13.414062 -19.898438 12.53125 -21.109375 C 11.644531 -22.328125 10.363281 -22.9375 8.6875 -22.9375 C 7.5 -22.9375 6.535156 -22.582031 5.796875 -21.875 C 5.054688 -21.164062 4.6875 -20.253906 4.6875 -19.140625 C 4.6875 -18.304688 4.875 -17.582031 5.25 -16.96875 C 5.632812 -16.363281 6.125 -15.84375 6.71875 -15.40625 C 7.3125 -14.96875 8.148438 -14.410156 9.234375 -13.734375 L 10.1875 -13.140625 C 11.5625 -12.285156 12.644531 -11.535156 13.4375 -10.890625 C 14.238281 -10.242188 14.878906 -9.503906 15.359375 -8.671875 C 15.847656 -7.847656 16.09375 -6.878906 16.09375 -5.765625 C 16.09375 -3.773438 15.4375 -2.238281 14.125 -1.15625 C 12.8125 -0.0820312 11.148438 0.453125 9.140625 0.453125 C 8.085938 0.453125 7.226562 0.34375 6.5625 0.125 C 5.894531 -0.09375 5.257812 -0.382812 4.65625 -0.75 C 4.175781 -1.0625 3.800781 -1.21875 3.53125 -1.21875 C 3.34375 -1.21875 3.191406 -1.101562 3.078125 -0.875 C 2.972656 -0.644531 2.882812 -0.273438 2.8125 0.234375 L 2.0625 0.234375 C 2.144531 -0.972656 2.1875 -3.597656 2.1875 -7.640625 L 2.953125 -7.640625 C 3.097656 -5.429688 3.640625 -3.640625 4.578125 -2.265625 C 5.523438 -0.890625 6.96875 -0.203125 8.90625 -0.203125 C 10.09375 -0.203125 11.097656 -0.566406 11.921875 -1.296875 C 12.753906 -2.023438 13.171875 -3.109375 13.171875 -4.546875 C 13.171875 -5.773438 12.757812 -6.8125 11.9375 -7.65625 C 11.125 -8.507812 9.832031 -9.472656 8.0625 -10.546875 C 6.769531 -11.335938 5.722656 -12.035156 4.921875 -12.640625 C 4.128906 -13.253906 3.484375 -13.992188 2.984375 -14.859375 C 2.484375 -15.722656 2.234375 -16.734375 2.234375 -17.890625 C 2.234375 -19.722656 2.820312 -21.125 4 -22.09375 C 5.175781 -23.070312 6.640625 -23.5625 8.390625 -23.5625 Z M 8.390625 -23.5625 " />
            </g>
        </g>
    </g>
    <g fill="#f1f5f9" fill-opacity="1">
        <g transform="translate(201.124618, 242.948802)">
            <g>
                <path
                    d="M 6.09375 -13.40625 C 6.632812 -14.78125 7.390625 -15.773438 8.359375 -16.390625 C 9.335938 -17.015625 10.441406 -17.328125 11.671875 -17.328125 C 13.191406 -17.328125 14.347656 -16.914062 15.140625 -16.09375 C 15.554688 -15.65625 15.847656 -15.109375 16.015625 -14.453125 C 16.191406 -13.796875 16.28125 -12.910156 16.28125 -11.796875 L 16.28125 -3.046875 C 16.28125 -2.148438 16.46875 -1.53125 16.84375 -1.1875 C 17.21875 -0.851562 17.863281 -0.6875 18.78125 -0.6875 L 18.78125 0 C 16.769531 -0.0820312 15.457031 -0.125 14.84375 -0.125 C 14.226562 -0.125 13.003906 -0.0820312 11.171875 0 L 11.171875 -0.6875 C 11.984375 -0.6875 12.546875 -0.851562 12.859375 -1.1875 C 13.171875 -1.53125 13.328125 -2.148438 13.328125 -3.046875 L 13.328125 -12.515625 C 13.328125 -13.734375 13.148438 -14.664062 12.796875 -15.3125 C 12.453125 -15.957031 11.75 -16.28125 10.6875 -16.28125 C 9.789062 -16.28125 9 -16.03125 8.3125 -15.53125 C 7.625 -15.03125 7.082031 -14.328125 6.6875 -13.421875 C 6.289062 -12.515625 6.09375 -11.492188 6.09375 -10.359375 L 6.09375 -3.046875 C 6.09375 -2.148438 6.25 -1.53125 6.5625 -1.1875 C 6.882812 -0.851562 7.445312 -0.6875 8.25 -0.6875 L 8.25 0 C 6.414062 -0.0820312 5.195312 -0.125 4.59375 -0.125 C 3.976562 -0.125 2.664062 -0.0820312 0.65625 0 L 0.65625 -0.6875 C 1.570312 -0.6875 2.210938 -0.851562 2.578125 -1.1875 C 2.953125 -1.53125 3.140625 -2.148438 3.140625 -3.046875 L 3.140625 -21.71875 C 3.140625 -22.726562 2.953125 -23.460938 2.578125 -23.921875 C 2.210938 -24.378906 1.570312 -24.609375 0.65625 -24.609375 L 0.65625 -25.296875 C 1.351562 -25.234375 2.03125 -25.203125 2.6875 -25.203125 C 4.0625 -25.203125 5.195312 -25.351562 6.09375 -25.65625 Z M 6.09375 -13.40625 " />
            </g>
        </g>
    </g>
    <g fill="#f1f5f9" fill-opacity="1">
        <g transform="translate(219.892401, 242.948802)">
            <g>
                <path
                    d="M 8.984375 -17.328125 C 11.203125 -17.328125 12.992188 -16.585938 14.359375 -15.109375 C 15.734375 -13.640625 16.421875 -11.410156 16.421875 -8.421875 C 16.421875 -5.429688 15.734375 -3.203125 14.359375 -1.734375 C 12.992188 -0.273438 11.203125 0.453125 8.984375 0.453125 C 6.753906 0.453125 4.957031 -0.273438 3.59375 -1.734375 C 2.226562 -3.203125 1.546875 -5.429688 1.546875 -8.421875 C 1.546875 -11.410156 2.226562 -13.640625 3.59375 -15.109375 C 4.957031 -16.585938 6.753906 -17.328125 8.984375 -17.328125 Z M 8.984375 -16.671875 C 7.671875 -16.671875 6.628906 -16 5.859375 -14.65625 C 5.097656 -13.3125 4.71875 -11.234375 4.71875 -8.421875 C 4.71875 -5.597656 5.097656 -3.519531 5.859375 -2.1875 C 6.628906 -0.863281 7.671875 -0.203125 8.984375 -0.203125 C 10.285156 -0.203125 11.316406 -0.863281 12.078125 -2.1875 C 12.847656 -3.519531 13.234375 -5.597656 13.234375 -8.421875 C 13.234375 -11.234375 12.847656 -13.3125 12.078125 -14.65625 C 11.316406 -16 10.285156 -16.671875 8.984375 -16.671875 Z M 8.984375 -16.671875 " />
            </g>
        </g>
    </g>
    <g fill="#f1f5f9" fill-opacity="1">
        <g transform="translate(237.35003, 242.948802)">
            <g>
                <path
                    d="M 11.40625 -17.328125 C 12.5625 -17.328125 13.601562 -17.007812 14.53125 -16.375 C 15.457031 -15.75 16.179688 -14.820312 16.703125 -13.59375 C 17.234375 -12.375 17.5 -10.910156 17.5 -9.203125 C 17.5 -7.523438 17.226562 -5.953125 16.6875 -4.484375 C 16.15625 -3.023438 15.328125 -1.835938 14.203125 -0.921875 C 13.078125 -0.00390625 11.675781 0.453125 10 0.453125 C 9.164062 0.453125 8.410156 0.289062 7.734375 -0.03125 C 7.054688 -0.363281 6.53125 -0.789062 6.15625 -1.3125 L 6.15625 2.890625 C 6.15625 3.785156 6.414062 4.398438 6.9375 4.734375 C 7.46875 5.078125 8.257812 5.25 9.3125 5.25 L 9.3125 5.9375 L 8.546875 5.890625 C 6.515625 5.828125 5.195312 5.796875 4.59375 5.796875 C 4.0625 5.796875 2.878906 5.84375 1.046875 5.9375 L 1.046875 5.25 C 1.859375 5.25 2.421875 5.097656 2.734375 4.796875 C 3.054688 4.503906 3.21875 3.976562 3.21875 3.21875 L 3.21875 -13.296875 C 3.21875 -14.304688 3.03125 -15.039062 2.65625 -15.5 C 2.28125 -15.957031 1.632812 -16.1875 0.71875 -16.1875 L 0.71875 -16.875 C 1.394531 -16.8125 2.070312 -16.78125 2.75 -16.78125 C 4.125 -16.78125 5.257812 -16.929688 6.15625 -17.234375 L 6.15625 -13.765625 C 6.632812 -14.898438 7.332031 -15.773438 8.25 -16.390625 C 9.175781 -17.015625 10.226562 -17.328125 11.40625 -17.328125 Z M 9.640625 -0.296875 C 12.753906 -0.296875 14.3125 -3.113281 14.3125 -8.75 C 14.3125 -13.8125 13.046875 -16.34375 10.515625 -16.34375 C 9.535156 -16.34375 8.648438 -15.988281 7.859375 -15.28125 C 7.078125 -14.570312 6.507812 -13.550781 6.15625 -12.21875 L 6.15625 -2.390625 C 6.46875 -1.753906 6.914062 -1.242188 7.5 -0.859375 C 8.09375 -0.484375 8.804688 -0.296875 9.640625 -0.296875 Z M 9.640625 -0.296875 " />
            </g>
        </g>
    </g>
    <g fill="#f1f5f9" fill-opacity="1">
        <g transform="translate(87.43499, 268.511788)">
            <g>
                <path
                    d="M 5.046875 0 L 3.625 0 L 3.625 -9.9375 L 0.359375 -9.9375 L 0.359375 -10.984375 L 8.359375 -10.984375 L 8.359375 -9.9375 L 5.046875 -9.9375 Z M 5.046875 0 " />
            </g>
        </g>
    </g>
    <g fill="#f1f5f9" fill-opacity="1">
        <g transform="translate(96.824019, 268.511788)">
            <g>
                <path
                    d="M 2.46875 0 L 1.21875 0 L 1.21875 -5.421875 C 1.21875 -6.304688 1.054688 -6.988281 0.734375 -7.46875 L 2.09375 -7.625 C 2.28125 -7.1875 2.394531 -6.722656 2.4375 -6.234375 C 2.707031 -6.648438 3.0625 -6.984375 3.5 -7.234375 C 3.945312 -7.492188 4.414062 -7.625 4.90625 -7.625 L 4.59375 -6.296875 C 3.78125 -6.296875 3.070312 -5.851562 2.46875 -4.96875 Z M 2.46875 0 " />
            </g>
        </g>
    </g>
    <g fill="#f1f5f9" fill-opacity="1">
        <g transform="translate(102.761956, 268.511788)">
            <g>
                <path
                    d="M 7.25 -1.09375 L 7.515625 -0.3125 C 7.441406 -0.28125 7.328125 -0.234375 7.171875 -0.171875 C 7.015625 -0.109375 6.890625 -0.0546875 6.796875 -0.015625 C 6.703125 0.015625 6.582031 0.046875 6.4375 0.078125 C 6.300781 0.117188 6.175781 0.140625 6.0625 0.140625 C 5.769531 0.140625 5.53125 0.046875 5.34375 -0.140625 C 5.15625 -0.335938 5.035156 -0.585938 4.984375 -0.890625 C 4.316406 -0.179688 3.566406 0.171875 2.734375 0.171875 C 2.128906 0.171875 1.628906 -0.00390625 1.234375 -0.359375 C 0.847656 -0.722656 0.65625 -1.207031 0.65625 -1.8125 C 0.65625 -3.507812 2.085938 -4.367188 4.953125 -4.390625 L 4.953125 -5.1875 C 4.953125 -6.1875 4.535156 -6.6875 3.703125 -6.6875 C 3.316406 -6.6875 2.921875 -6.609375 2.515625 -6.453125 C 2.117188 -6.296875 1.796875 -6.082031 1.546875 -5.8125 L 0.9375 -6.6875 C 1.75 -7.34375 2.707031 -7.671875 3.8125 -7.671875 C 4.59375 -7.671875 5.1875 -7.457031 5.59375 -7.03125 C 6.007812 -6.601562 6.21875 -5.992188 6.21875 -5.203125 L 6.21875 -1.46875 C 6.21875 -1.257812 6.238281 -1.109375 6.28125 -1.015625 C 6.320312 -0.929688 6.410156 -0.890625 6.546875 -0.890625 C 6.660156 -0.890625 6.894531 -0.957031 7.25 -1.09375 Z M 4.953125 -2.921875 L 4.953125 -3.40625 C 4.585938 -3.40625 4.269531 -3.390625 4 -3.359375 C 3.738281 -3.335938 3.425781 -3.28125 3.0625 -3.1875 C 2.707031 -3.101562 2.429688 -2.945312 2.234375 -2.71875 C 2.035156 -2.488281 1.9375 -2.203125 1.9375 -1.859375 C 1.9375 -1.535156 2.046875 -1.289062 2.265625 -1.125 C 2.484375 -0.96875 2.773438 -0.890625 3.140625 -0.890625 C 3.648438 -0.890625 4.078125 -1.097656 4.421875 -1.515625 C 4.773438 -1.929688 4.953125 -2.398438 4.953125 -2.921875 Z M 4.953125 -2.921875 " />
            </g>
        </g>
    </g>
    <g fill="#f1f5f9" fill-opacity="1">
        <g transform="translate(110.885085, 268.511788)">
            <g>
                <path
                    d="M 7.609375 -0.03125 L 6.28125 0.140625 C 6.144531 -0.171875 6.050781 -0.515625 6 -0.890625 C 5.4375 -0.160156 4.695312 0.203125 3.78125 0.203125 C 2.800781 0.203125 2.035156 -0.179688 1.484375 -0.953125 C 0.941406 -1.734375 0.671875 -2.640625 0.671875 -3.671875 C 0.671875 -4.785156 0.957031 -5.726562 1.53125 -6.5 C 2.113281 -7.269531 2.945312 -7.65625 4.03125 -7.65625 C 4.800781 -7.65625 5.425781 -7.4375 5.90625 -7 L 5.90625 -10.59375 L 5.703125 -11.484375 L 7.140625 -11.484375 L 7.140625 -2.15625 C 7.140625 -1.257812 7.296875 -0.550781 7.609375 -0.03125 Z M 5.90625 -1.90625 L 5.90625 -4.4375 C 5.90625 -5.070312 5.75 -5.597656 5.4375 -6.015625 C 5.132812 -6.429688 4.675781 -6.640625 4.0625 -6.640625 C 3.675781 -6.640625 3.34375 -6.550781 3.0625 -6.375 C 2.789062 -6.207031 2.582031 -5.976562 2.4375 -5.6875 C 2.289062 -5.40625 2.179688 -5.101562 2.109375 -4.78125 C 2.035156 -4.46875 2 -4.128906 2 -3.765625 C 2 -2.984375 2.175781 -2.3125 2.53125 -1.75 C 2.882812 -1.1875 3.425781 -0.90625 4.15625 -0.90625 C 4.738281 -0.90625 5.320312 -1.238281 5.90625 -1.90625 Z M 5.90625 -1.90625 " />
            </g>
        </g>
    </g>
    <g fill="#f1f5f9" fill-opacity="1">
        <g transform="translate(119.97271, 268.511788)">
            <g>
                <path
                    d="M 2.796875 -10.015625 C 2.796875 -9.753906 2.707031 -9.535156 2.53125 -9.359375 C 2.351562 -9.179688 2.132812 -9.09375 1.875 -9.09375 C 1.625 -9.09375 1.410156 -9.179688 1.234375 -9.359375 C 1.054688 -9.546875 0.96875 -9.765625 0.96875 -10.015625 C 0.96875 -10.265625 1.054688 -10.476562 1.234375 -10.65625 C 1.410156 -10.84375 1.625 -10.9375 1.875 -10.9375 C 2.125 -10.9375 2.335938 -10.84375 2.515625 -10.65625 C 2.703125 -10.476562 2.796875 -10.265625 2.796875 -10.015625 Z M 2.515625 0 L 1.265625 0 L 1.265625 -6.609375 C 1.265625 -6.617188 1.25 -6.691406 1.21875 -6.828125 C 1.1875 -6.960938 1.15625 -7.101562 1.125 -7.25 C 1.09375 -7.394531 1.078125 -7.476562 1.078125 -7.5 L 2.515625 -7.5 Z M 2.515625 0 " />
            </g>
        </g>
    </g>
    <g fill="#f1f5f9" fill-opacity="1">
        <g transform="translate(124.433762, 268.511788)">
            <g>
                <path
                    d="M 4.421875 -0.953125 L 4.625 -0.109375 C 4.03125 0.078125 3.535156 0.171875 3.140625 0.171875 C 2.523438 0.171875 2.082031 0.0078125 1.8125 -0.3125 C 1.550781 -0.644531 1.421875 -1.132812 1.421875 -1.78125 L 1.421875 -6.546875 L 0.296875 -6.546875 L 0.296875 -7.296875 C 1.171875 -7.316406 1.753906 -8.097656 2.046875 -9.640625 L 3 -9.640625 C 2.78125 -8.734375 2.671875 -8.019531 2.671875 -7.5 L 4.625 -7.5 L 4.359375 -6.546875 L 2.671875 -6.546875 L 2.671875 -1.75 C 2.671875 -1.425781 2.726562 -1.1875 2.84375 -1.03125 C 2.957031 -0.875 3.164062 -0.796875 3.46875 -0.796875 C 3.695312 -0.796875 4.015625 -0.847656 4.421875 -0.953125 Z M 4.421875 -0.953125 " />
            </g>
        </g>
    </g>
    <g fill="#f1f5f9" fill-opacity="1">
        <g transform="translate(130.040151, 268.511788)">
            <g>
                <path
                    d="M 2.796875 -10.015625 C 2.796875 -9.753906 2.707031 -9.535156 2.53125 -9.359375 C 2.351562 -9.179688 2.132812 -9.09375 1.875 -9.09375 C 1.625 -9.09375 1.410156 -9.179688 1.234375 -9.359375 C 1.054688 -9.546875 0.96875 -9.765625 0.96875 -10.015625 C 0.96875 -10.265625 1.054688 -10.476562 1.234375 -10.65625 C 1.410156 -10.84375 1.625 -10.9375 1.875 -10.9375 C 2.125 -10.9375 2.335938 -10.84375 2.515625 -10.65625 C 2.703125 -10.476562 2.796875 -10.265625 2.796875 -10.015625 Z M 2.515625 0 L 1.265625 0 L 1.265625 -6.609375 C 1.265625 -6.617188 1.25 -6.691406 1.21875 -6.828125 C 1.1875 -6.960938 1.15625 -7.101562 1.125 -7.25 C 1.09375 -7.394531 1.078125 -7.476562 1.078125 -7.5 L 2.515625 -7.5 Z M 2.515625 0 " />
            </g>
        </g>
    </g>
    <g fill="#f1f5f9" fill-opacity="1">
        <g transform="translate(134.501204, 268.511788)">
            <g>
                <path
                    d="M 4.046875 0.203125 C 2.984375 0.203125 2.148438 -0.179688 1.546875 -0.953125 C 0.953125 -1.722656 0.65625 -2.648438 0.65625 -3.734375 C 0.65625 -4.816406 0.957031 -5.742188 1.5625 -6.515625 C 2.164062 -7.285156 2.992188 -7.671875 4.046875 -7.671875 C 5.109375 -7.671875 5.9375 -7.289062 6.53125 -6.53125 C 7.132812 -5.769531 7.4375 -4.835938 7.4375 -3.734375 C 7.4375 -2.640625 7.132812 -1.707031 6.53125 -0.9375 C 5.9375 -0.175781 5.109375 0.203125 4.046875 0.203125 Z M 4.046875 -0.75 C 4.535156 -0.75 4.941406 -0.914062 5.265625 -1.25 C 5.597656 -1.582031 5.820312 -1.960938 5.9375 -2.390625 C 6.050781 -2.816406 6.109375 -3.265625 6.109375 -3.734375 C 6.109375 -4.210938 6.046875 -4.664062 5.921875 -5.09375 C 5.804688 -5.519531 5.582031 -5.894531 5.25 -6.21875 C 4.925781 -6.550781 4.523438 -6.71875 4.046875 -6.71875 C 3.554688 -6.71875 3.148438 -6.550781 2.828125 -6.21875 C 2.503906 -5.894531 2.28125 -5.519531 2.15625 -5.09375 C 2.039062 -4.664062 1.984375 -4.210938 1.984375 -3.734375 C 1.984375 -3.296875 2.046875 -2.859375 2.171875 -2.421875 C 2.304688 -1.992188 2.535156 -1.609375 2.859375 -1.265625 C 3.191406 -0.921875 3.585938 -0.75 4.046875 -0.75 Z M 4.046875 -0.75 " />
            </g>
        </g>
    </g>
    <g fill="#f1f5f9" fill-opacity="1">
        <g transform="translate(143.257281, 268.511788)">
            <g>
                <path
                    d="M 7 0 L 5.765625 0 L 5.765625 -4.59375 C 5.765625 -4.832031 5.757812 -5.023438 5.75 -5.171875 C 5.738281 -5.316406 5.707031 -5.484375 5.65625 -5.671875 C 5.613281 -5.867188 5.550781 -6.023438 5.46875 -6.140625 C 5.382812 -6.253906 5.257812 -6.351562 5.09375 -6.4375 C 4.925781 -6.519531 4.726562 -6.5625 4.5 -6.5625 C 3.832031 -6.5625 3.144531 -6.226562 2.4375 -5.5625 L 2.4375 0 L 1.203125 0 L 1.203125 -5.3125 C 1.203125 -6.269531 1.035156 -6.976562 0.703125 -7.4375 L 2.078125 -7.609375 C 2.234375 -7.234375 2.332031 -6.878906 2.375 -6.546875 C 3.125 -7.296875 3.898438 -7.671875 4.703125 -7.671875 C 5.492188 -7.671875 6.070312 -7.429688 6.4375 -6.953125 C 6.8125 -6.484375 7 -5.832031 7 -5 Z M 7 0 " />
            </g>
        </g>
    </g>
    <g fill="#f1f5f9" fill-opacity="1">
        <g transform="translate(152.179129, 268.511788)">
            <g>
                <path
                    d="M 7.25 -1.09375 L 7.515625 -0.3125 C 7.441406 -0.28125 7.328125 -0.234375 7.171875 -0.171875 C 7.015625 -0.109375 6.890625 -0.0546875 6.796875 -0.015625 C 6.703125 0.015625 6.582031 0.046875 6.4375 0.078125 C 6.300781 0.117188 6.175781 0.140625 6.0625 0.140625 C 5.769531 0.140625 5.53125 0.046875 5.34375 -0.140625 C 5.15625 -0.335938 5.035156 -0.585938 4.984375 -0.890625 C 4.316406 -0.179688 3.566406 0.171875 2.734375 0.171875 C 2.128906 0.171875 1.628906 -0.00390625 1.234375 -0.359375 C 0.847656 -0.722656 0.65625 -1.207031 0.65625 -1.8125 C 0.65625 -3.507812 2.085938 -4.367188 4.953125 -4.390625 L 4.953125 -5.1875 C 4.953125 -6.1875 4.535156 -6.6875 3.703125 -6.6875 C 3.316406 -6.6875 2.921875 -6.609375 2.515625 -6.453125 C 2.117188 -6.296875 1.796875 -6.082031 1.546875 -5.8125 L 0.9375 -6.6875 C 1.75 -7.34375 2.707031 -7.671875 3.8125 -7.671875 C 4.59375 -7.671875 5.1875 -7.457031 5.59375 -7.03125 C 6.007812 -6.601562 6.21875 -5.992188 6.21875 -5.203125 L 6.21875 -1.46875 C 6.21875 -1.257812 6.238281 -1.109375 6.28125 -1.015625 C 6.320312 -0.929688 6.410156 -0.890625 6.546875 -0.890625 C 6.660156 -0.890625 6.894531 -0.957031 7.25 -1.09375 Z M 4.953125 -2.921875 L 4.953125 -3.40625 C 4.585938 -3.40625 4.269531 -3.390625 4 -3.359375 C 3.738281 -3.335938 3.425781 -3.28125 3.0625 -3.1875 C 2.707031 -3.101562 2.429688 -2.945312 2.234375 -2.71875 C 2.035156 -2.488281 1.9375 -2.203125 1.9375 -1.859375 C 1.9375 -1.535156 2.046875 -1.289062 2.265625 -1.125 C 2.484375 -0.96875 2.773438 -0.890625 3.140625 -0.890625 C 3.648438 -0.890625 4.078125 -1.097656 4.421875 -1.515625 C 4.773438 -1.929688 4.953125 -2.398438 4.953125 -2.921875 Z M 4.953125 -2.921875 " />
            </g>
        </g>
    </g>
    <g fill="#f1f5f9" fill-opacity="1">
        <g transform="translate(160.302259, 268.511788)">
            <g>
                <path
                    d="M 2.515625 0 L 1.265625 0 L 1.265625 -10.609375 C 1.265625 -10.617188 1.25 -10.6875 1.21875 -10.8125 C 1.1875 -10.945312 1.15625 -11.085938 1.125 -11.234375 C 1.09375 -11.378906 1.078125 -11.460938 1.078125 -11.484375 L 2.515625 -11.484375 Z M 2.515625 0 " />
            </g>
        </g>
    </g>
    <g fill="#f1f5f9" fill-opacity="1">
        <g transform="translate(164.763314, 268.511788)">
            <g />
        </g>
    </g>
    <g fill="#f1f5f9" fill-opacity="1">
        <g transform="translate(168.907895, 268.511788)">
            <g>
                <path
                    d="M 0.484375 -0.640625 L 1.03125 -1.875 C 1.351562 -1.582031 1.75 -1.347656 2.21875 -1.171875 C 2.695312 -0.992188 3.15625 -0.90625 3.59375 -0.90625 C 4.164062 -0.90625 4.675781 -1.066406 5.125 -1.390625 C 5.582031 -1.710938 5.8125 -2.179688 5.8125 -2.796875 C 5.8125 -3.316406 5.632812 -3.753906 5.28125 -4.109375 C 4.9375 -4.472656 4.515625 -4.765625 4.015625 -4.984375 C 3.523438 -5.203125 3.035156 -5.425781 2.546875 -5.65625 C 2.066406 -5.894531 1.648438 -6.226562 1.296875 -6.65625 C 0.953125 -7.09375 0.78125 -7.628906 0.78125 -8.265625 C 0.78125 -9.160156 1.117188 -9.859375 1.796875 -10.359375 C 2.484375 -10.867188 3.289062 -11.125 4.21875 -11.125 C 5.195312 -11.125 6.144531 -10.851562 7.0625 -10.3125 L 6.359375 -9.296875 C 5.660156 -9.804688 4.941406 -10.0625 4.203125 -10.0625 C 3.628906 -10.0625 3.164062 -9.921875 2.8125 -9.640625 C 2.46875 -9.359375 2.296875 -8.941406 2.296875 -8.390625 C 2.296875 -8.078125 2.382812 -7.796875 2.5625 -7.546875 C 2.75 -7.296875 2.988281 -7.085938 3.28125 -6.921875 C 3.570312 -6.753906 3.894531 -6.585938 4.25 -6.421875 C 4.613281 -6.265625 4.972656 -6.085938 5.328125 -5.890625 C 5.691406 -5.691406 6.019531 -5.472656 6.3125 -5.234375 C 6.601562 -4.992188 6.84375 -4.679688 7.03125 -4.296875 C 7.21875 -3.910156 7.3125 -3.472656 7.3125 -2.984375 C 7.3125 -1.960938 6.945312 -1.175781 6.21875 -0.625 C 5.5 -0.0820312 4.609375 0.1875 3.546875 0.1875 C 2.554688 0.1875 1.535156 -0.0859375 0.484375 -0.640625 Z M 0.484375 -0.640625 " />
            </g>
        </g>
    </g>
    <g fill="#f1f5f9" fill-opacity="1">
        <g transform="translate(177.362561, 268.511788)">
            <g>
                <path
                    d="M 6.125 -1.546875 L 6.671875 -0.640625 C 5.984375 -0.078125 5.140625 0.203125 4.140625 0.203125 C 3.054688 0.203125 2.203125 -0.160156 1.578125 -0.890625 C 0.960938 -1.617188 0.65625 -2.539062 0.65625 -3.65625 C 0.65625 -4.34375 0.769531 -4.984375 1 -5.578125 C 1.226562 -6.171875 1.59375 -6.664062 2.09375 -7.0625 C 2.601562 -7.46875 3.210938 -7.671875 3.921875 -7.671875 C 4.796875 -7.671875 5.5 -7.410156 6.03125 -6.890625 C 6.5625 -6.378906 6.828125 -5.691406 6.828125 -4.828125 C 6.828125 -4.179688 6.570312 -3.859375 6.0625 -3.859375 L 1.984375 -3.859375 L 1.984375 -3.703125 C 1.984375 -2.984375 2.175781 -2.328125 2.5625 -1.734375 C 2.957031 -1.148438 3.492188 -0.859375 4.171875 -0.859375 C 4.503906 -0.859375 4.851562 -0.921875 5.21875 -1.046875 C 5.582031 -1.171875 5.882812 -1.335938 6.125 -1.546875 Z M 2.078125 -4.796875 L 5.234375 -4.796875 C 5.335938 -4.796875 5.40625 -4.816406 5.4375 -4.859375 C 5.46875 -4.910156 5.484375 -4.992188 5.484375 -5.109375 C 5.484375 -5.566406 5.351562 -5.945312 5.09375 -6.25 C 4.832031 -6.5625 4.484375 -6.71875 4.046875 -6.71875 C 3.554688 -6.71875 3.128906 -6.519531 2.765625 -6.125 C 2.398438 -5.738281 2.171875 -5.296875 2.078125 -4.796875 Z M 2.078125 -4.796875 " />
            </g>
        </g>
    </g>
    <g fill="#f1f5f9" fill-opacity="1">
        <g transform="translate(185.485685, 268.511788)">
            <g>
                <path
                    d="M 2.46875 0 L 1.21875 0 L 1.21875 -5.421875 C 1.21875 -6.304688 1.054688 -6.988281 0.734375 -7.46875 L 2.09375 -7.625 C 2.28125 -7.1875 2.394531 -6.722656 2.4375 -6.234375 C 2.707031 -6.648438 3.0625 -6.984375 3.5 -7.234375 C 3.945312 -7.492188 4.414062 -7.625 4.90625 -7.625 L 4.59375 -6.296875 C 3.78125 -6.296875 3.070312 -5.851562 2.46875 -4.96875 Z M 2.46875 0 " />
            </g>
        </g>
    </g>
    <g fill="#f1f5f9" fill-opacity="1">
        <g transform="translate(191.423623, 268.511788)">
            <g>
                <path
                    d="M 1.9375 0.015625 L 1.1875 0.015625 L 1.234375 -1.03125 L 1.234375 -10.609375 C 1.234375 -10.617188 1.210938 -10.691406 1.171875 -10.828125 C 1.140625 -10.960938 1.109375 -11.097656 1.078125 -11.234375 C 1.046875 -11.378906 1.03125 -11.460938 1.03125 -11.484375 L 2.484375 -11.484375 L 2.484375 -6.8125 C 3.097656 -7.363281 3.800781 -7.640625 4.59375 -7.640625 C 5.582031 -7.640625 6.347656 -7.253906 6.890625 -6.484375 C 7.441406 -5.710938 7.71875 -4.8125 7.71875 -3.78125 C 7.71875 -3.082031 7.601562 -2.4375 7.375 -1.84375 C 7.144531 -1.257812 6.769531 -0.769531 6.25 -0.375 C 5.738281 0.0078125 5.128906 0.203125 4.421875 0.203125 C 3.492188 0.203125 2.757812 -0.117188 2.21875 -0.765625 Z M 2.484375 -5.75 L 2.484375 -3 C 2.484375 -2.3125 2.632812 -1.757812 2.9375 -1.34375 C 3.238281 -0.9375 3.71875 -0.734375 4.375 -0.734375 C 4.84375 -0.734375 5.234375 -0.90625 5.546875 -1.25 C 5.867188 -1.601562 6.085938 -1.992188 6.203125 -2.421875 C 6.316406 -2.847656 6.375 -3.285156 6.375 -3.734375 C 6.375 -4.492188 6.203125 -5.15625 5.859375 -5.71875 C 5.515625 -6.289062 4.988281 -6.578125 4.28125 -6.578125 C 3.601562 -6.578125 3.003906 -6.300781 2.484375 -5.75 Z M 2.484375 -5.75 " />
            </g>
        </g>
    </g>
    <g fill="#f1f5f9" fill-opacity="1">
        <g transform="translate(200.51125, 268.511788)">
            <g>
                <path
                    d="M 2.796875 -10.015625 C 2.796875 -9.753906 2.707031 -9.535156 2.53125 -9.359375 C 2.351562 -9.179688 2.132812 -9.09375 1.875 -9.09375 C 1.625 -9.09375 1.410156 -9.179688 1.234375 -9.359375 C 1.054688 -9.546875 0.96875 -9.765625 0.96875 -10.015625 C 0.96875 -10.265625 1.054688 -10.476562 1.234375 -10.65625 C 1.410156 -10.84375 1.625 -10.9375 1.875 -10.9375 C 2.125 -10.9375 2.335938 -10.84375 2.515625 -10.65625 C 2.703125 -10.476562 2.796875 -10.265625 2.796875 -10.015625 Z M 2.515625 0 L 1.265625 0 L 1.265625 -6.609375 C 1.265625 -6.617188 1.25 -6.691406 1.21875 -6.828125 C 1.1875 -6.960938 1.15625 -7.101562 1.125 -7.25 C 1.09375 -7.394531 1.078125 -7.476562 1.078125 -7.5 L 2.515625 -7.5 Z M 2.515625 0 " />
            </g>
        </g>
    </g>
    <g fill="#f1f5f9" fill-opacity="1">
        <g transform="translate(204.972306, 268.511788)">
            <g>
                <path
                    d="M 7.25 -1.09375 L 7.515625 -0.3125 C 7.441406 -0.28125 7.328125 -0.234375 7.171875 -0.171875 C 7.015625 -0.109375 6.890625 -0.0546875 6.796875 -0.015625 C 6.703125 0.015625 6.582031 0.046875 6.4375 0.078125 C 6.300781 0.117188 6.175781 0.140625 6.0625 0.140625 C 5.769531 0.140625 5.53125 0.046875 5.34375 -0.140625 C 5.15625 -0.335938 5.035156 -0.585938 4.984375 -0.890625 C 4.316406 -0.179688 3.566406 0.171875 2.734375 0.171875 C 2.128906 0.171875 1.628906 -0.00390625 1.234375 -0.359375 C 0.847656 -0.722656 0.65625 -1.207031 0.65625 -1.8125 C 0.65625 -3.507812 2.085938 -4.367188 4.953125 -4.390625 L 4.953125 -5.1875 C 4.953125 -6.1875 4.535156 -6.6875 3.703125 -6.6875 C 3.316406 -6.6875 2.921875 -6.609375 2.515625 -6.453125 C 2.117188 -6.296875 1.796875 -6.082031 1.546875 -5.8125 L 0.9375 -6.6875 C 1.75 -7.34375 2.707031 -7.671875 3.8125 -7.671875 C 4.59375 -7.671875 5.1875 -7.457031 5.59375 -7.03125 C 6.007812 -6.601562 6.21875 -5.992188 6.21875 -5.203125 L 6.21875 -1.46875 C 6.21875 -1.257812 6.238281 -1.109375 6.28125 -1.015625 C 6.320312 -0.929688 6.410156 -0.890625 6.546875 -0.890625 C 6.660156 -0.890625 6.894531 -0.957031 7.25 -1.09375 Z M 4.953125 -2.921875 L 4.953125 -3.40625 C 4.585938 -3.40625 4.269531 -3.390625 4 -3.359375 C 3.738281 -3.335938 3.425781 -3.28125 3.0625 -3.1875 C 2.707031 -3.101562 2.429688 -2.945312 2.234375 -2.71875 C 2.035156 -2.488281 1.9375 -2.203125 1.9375 -1.859375 C 1.9375 -1.535156 2.046875 -1.289062 2.265625 -1.125 C 2.484375 -0.96875 2.773438 -0.890625 3.140625 -0.890625 C 3.648438 -0.890625 4.078125 -1.097656 4.421875 -1.515625 C 4.773438 -1.929688 4.953125 -2.398438 4.953125 -2.921875 Z M 4.953125 -2.921875 " />
            </g>
        </g>
    </g>
    <g fill="#f1f5f9" fill-opacity="1">
        <g transform="translate(213.095436, 268.511788)">
            <g>
                <path
                    d="M 7 0 L 5.765625 0 L 5.765625 -4.59375 C 5.765625 -4.832031 5.757812 -5.023438 5.75 -5.171875 C 5.738281 -5.316406 5.707031 -5.484375 5.65625 -5.671875 C 5.613281 -5.867188 5.550781 -6.023438 5.46875 -6.140625 C 5.382812 -6.253906 5.257812 -6.351562 5.09375 -6.4375 C 4.925781 -6.519531 4.726562 -6.5625 4.5 -6.5625 C 3.832031 -6.5625 3.144531 -6.226562 2.4375 -5.5625 L 2.4375 0 L 1.203125 0 L 1.203125 -5.3125 C 1.203125 -6.269531 1.035156 -6.976562 0.703125 -7.4375 L 2.078125 -7.609375 C 2.234375 -7.234375 2.332031 -6.878906 2.375 -6.546875 C 3.125 -7.296875 3.898438 -7.671875 4.703125 -7.671875 C 5.492188 -7.671875 6.070312 -7.429688 6.4375 -6.953125 C 6.8125 -6.484375 7 -5.832031 7 -5 Z M 7 0 " />
            </g>
        </g>
    </g>
    <g fill="#f1f5f9" fill-opacity="1">
        <g transform="translate(222.017284, 268.511788)">
            <g />
        </g>
    </g>
    <g fill="#f1f5f9" fill-opacity="1">
        <g transform="translate(226.161864, 268.511788)">
            <g>
                <path
                    d="M 2.671875 3.25 L 1.21875 3.25 L 1.21875 -5.3125 C 1.21875 -6.226562 1.0625 -6.9375 0.75 -7.4375 L 2.078125 -7.59375 C 2.222656 -7.28125 2.320312 -6.941406 2.375 -6.578125 C 2.945312 -7.296875 3.675781 -7.65625 4.5625 -7.65625 C 5.5625 -7.65625 6.332031 -7.269531 6.875 -6.5 C 7.414062 -5.726562 7.6875 -4.820312 7.6875 -3.78125 C 7.6875 -2.675781 7.394531 -1.734375 6.8125 -0.953125 C 6.226562 -0.179688 5.398438 0.203125 4.328125 0.203125 C 3.554688 0.203125 2.929688 -0.0195312 2.453125 -0.46875 L 2.453125 2.375 Z M 2.453125 -5.5625 L 2.453125 -3.03125 C 2.453125 -2.382812 2.601562 -1.851562 2.90625 -1.4375 C 3.207031 -1.03125 3.671875 -0.828125 4.296875 -0.828125 C 4.679688 -0.828125 5.007812 -0.910156 5.28125 -1.078125 C 5.5625 -1.253906 5.773438 -1.484375 5.921875 -1.765625 C 6.078125 -2.054688 6.1875 -2.363281 6.25 -2.6875 C 6.320312 -3.007812 6.359375 -3.34375 6.359375 -3.6875 C 6.359375 -4.476562 6.179688 -5.15625 5.828125 -5.71875 C 5.484375 -6.28125 4.9375 -6.5625 4.1875 -6.5625 C 3.59375 -6.5625 3.015625 -6.226562 2.453125 -5.5625 Z M 2.453125 -5.5625 " />
            </g>
        </g>
    </g>
    <g fill="#f1f5f9" fill-opacity="1">
        <g transform="translate(235.219347, 268.511788)">
            <g>
                <path
                    d="M 2.46875 0 L 1.21875 0 L 1.21875 -5.421875 C 1.21875 -6.304688 1.054688 -6.988281 0.734375 -7.46875 L 2.09375 -7.625 C 2.28125 -7.1875 2.394531 -6.722656 2.4375 -6.234375 C 2.707031 -6.648438 3.0625 -6.984375 3.5 -7.234375 C 3.945312 -7.492188 4.414062 -7.625 4.90625 -7.625 L 4.59375 -6.296875 C 3.78125 -6.296875 3.070312 -5.851562 2.46875 -4.96875 Z M 2.46875 0 " />
            </g>
        </g>
    </g>
    <g fill="#f1f5f9" fill-opacity="1">
        <g transform="translate(241.157286, 268.511788)">
            <g>
                <path
                    d="M 4.046875 0.203125 C 2.984375 0.203125 2.148438 -0.179688 1.546875 -0.953125 C 0.953125 -1.722656 0.65625 -2.648438 0.65625 -3.734375 C 0.65625 -4.816406 0.957031 -5.742188 1.5625 -6.515625 C 2.164062 -7.285156 2.992188 -7.671875 4.046875 -7.671875 C 5.109375 -7.671875 5.9375 -7.289062 6.53125 -6.53125 C 7.132812 -5.769531 7.4375 -4.835938 7.4375 -3.734375 C 7.4375 -2.640625 7.132812 -1.707031 6.53125 -0.9375 C 5.9375 -0.175781 5.109375 0.203125 4.046875 0.203125 Z M 4.046875 -0.75 C 4.535156 -0.75 4.941406 -0.914062 5.265625 -1.25 C 5.597656 -1.582031 5.820312 -1.960938 5.9375 -2.390625 C 6.050781 -2.816406 6.109375 -3.265625 6.109375 -3.734375 C 6.109375 -4.210938 6.046875 -4.664062 5.921875 -5.09375 C 5.804688 -5.519531 5.582031 -5.894531 5.25 -6.21875 C 4.925781 -6.550781 4.523438 -6.71875 4.046875 -6.71875 C 3.554688 -6.71875 3.148438 -6.550781 2.828125 -6.21875 C 2.503906 -5.894531 2.28125 -5.519531 2.15625 -5.09375 C 2.039062 -4.664062 1.984375 -4.210938 1.984375 -3.734375 C 1.984375 -3.296875 2.046875 -2.859375 2.171875 -2.421875 C 2.304688 -1.992188 2.535156 -1.609375 2.859375 -1.265625 C 3.191406 -0.921875 3.585938 -0.75 4.046875 -0.75 Z M 4.046875 -0.75 " />
            </g>
        </g>
    </g>
    <g fill="#f1f5f9" fill-opacity="1">
        <g transform="translate(249.913366, 268.511788)">
            <g>
                <path
                    d="M 7.609375 -0.03125 L 6.28125 0.140625 C 6.144531 -0.171875 6.050781 -0.515625 6 -0.890625 C 5.4375 -0.160156 4.695312 0.203125 3.78125 0.203125 C 2.800781 0.203125 2.035156 -0.179688 1.484375 -0.953125 C 0.941406 -1.734375 0.671875 -2.640625 0.671875 -3.671875 C 0.671875 -4.785156 0.957031 -5.726562 1.53125 -6.5 C 2.113281 -7.269531 2.945312 -7.65625 4.03125 -7.65625 C 4.800781 -7.65625 5.425781 -7.4375 5.90625 -7 L 5.90625 -10.59375 L 5.703125 -11.484375 L 7.140625 -11.484375 L 7.140625 -2.15625 C 7.140625 -1.257812 7.296875 -0.550781 7.609375 -0.03125 Z M 5.90625 -1.90625 L 5.90625 -4.4375 C 5.90625 -5.070312 5.75 -5.597656 5.4375 -6.015625 C 5.132812 -6.429688 4.675781 -6.640625 4.0625 -6.640625 C 3.675781 -6.640625 3.34375 -6.550781 3.0625 -6.375 C 2.789062 -6.207031 2.582031 -5.976562 2.4375 -5.6875 C 2.289062 -5.40625 2.179688 -5.101562 2.109375 -4.78125 C 2.035156 -4.46875 2 -4.128906 2 -3.765625 C 2 -2.984375 2.175781 -2.3125 2.53125 -1.75 C 2.882812 -1.1875 3.425781 -0.90625 4.15625 -0.90625 C 4.738281 -0.90625 5.320312 -1.238281 5.90625 -1.90625 Z M 5.90625 -1.90625 " />
            </g>
        </g>
    </g>
    <g fill="#f1f5f9" fill-opacity="1">
        <g transform="translate(259.000992, 268.511788)">
            <g>
                <path
                    d="M 8.046875 -1.09375 L 8.3125 -0.3125 C 8.238281 -0.28125 8.125 -0.234375 7.96875 -0.171875 C 7.8125 -0.109375 7.6875 -0.0546875 7.59375 -0.015625 C 7.5 0.015625 7.378906 0.046875 7.234375 0.078125 C 7.097656 0.117188 6.972656 0.140625 6.859375 0.140625 C 6.566406 0.140625 6.328125 0.046875 6.140625 -0.140625 C 5.960938 -0.335938 5.851562 -0.585938 5.8125 -0.890625 C 5.101562 -0.160156 4.332031 0.203125 3.5 0.203125 C 2.707031 0.203125 2.125 -0.0351562 1.75 -0.515625 C 1.382812 -0.992188 1.203125 -1.644531 1.203125 -2.46875 L 1.203125 -6.609375 C 1.203125 -6.617188 1.1875 -6.691406 1.15625 -6.828125 C 1.125 -6.960938 1.09375 -7.101562 1.0625 -7.25 C 1.03125 -7.394531 1.015625 -7.476562 1.015625 -7.5 L 2.453125 -7.5 L 2.453125 -2.875 C 2.453125 -2.601562 2.460938 -2.375 2.484375 -2.1875 C 2.515625 -2 2.566406 -1.796875 2.640625 -1.578125 C 2.722656 -1.367188 2.851562 -1.207031 3.03125 -1.09375 C 3.207031 -0.976562 3.429688 -0.921875 3.703125 -0.921875 C 4.265625 -0.921875 4.75 -1.097656 5.15625 -1.453125 C 5.5625 -1.804688 5.765625 -2.265625 5.765625 -2.828125 L 5.765625 -6.609375 C 5.765625 -6.617188 5.75 -6.691406 5.71875 -6.828125 C 5.6875 -6.960938 5.648438 -7.101562 5.609375 -7.25 C 5.578125 -7.394531 5.5625 -7.476562 5.5625 -7.5 L 7.015625 -7.5 L 7.015625 -1.46875 C 7.015625 -1.257812 7.035156 -1.109375 7.078125 -1.015625 C 7.117188 -0.929688 7.207031 -0.890625 7.34375 -0.890625 C 7.46875 -0.890625 7.703125 -0.957031 8.046875 -1.09375 Z M 8.046875 -1.09375 " />
            </g>
        </g>
    </g>
    <g fill="#f1f5f9" fill-opacity="1">
        <g transform="translate(268.01326, 268.511788)">
            <g>
                <path
                    d="M 5.953125 -1.5 L 6.53125 -0.5625 C 6.050781 -0.28125 5.644531 -0.0820312 5.3125 0.03125 C 4.976562 0.144531 4.5625 0.203125 4.0625 0.203125 C 3.050781 0.203125 2.226562 -0.195312 1.59375 -1 C 0.96875 -1.800781 0.65625 -2.710938 0.65625 -3.734375 C 0.65625 -4.867188 0.972656 -5.804688 1.609375 -6.546875 C 2.253906 -7.296875 3.132812 -7.671875 4.25 -7.671875 C 5.019531 -7.671875 5.742188 -7.414062 6.421875 -6.90625 L 5.75 -6.03125 C 5.457031 -6.28125 5.191406 -6.453125 4.953125 -6.546875 C 4.710938 -6.640625 4.414062 -6.6875 4.0625 -6.6875 C 3.40625 -6.6875 2.894531 -6.390625 2.53125 -5.796875 C 2.175781 -5.210938 2 -4.570312 2 -3.875 C 2 -3.414062 2.066406 -2.96875 2.203125 -2.53125 C 2.335938 -2.09375 2.570312 -1.703125 2.90625 -1.359375 C 3.25 -1.015625 3.65625 -0.84375 4.125 -0.84375 C 4.488281 -0.84375 4.796875 -0.890625 5.046875 -0.984375 C 5.296875 -1.085938 5.597656 -1.257812 5.953125 -1.5 Z M 5.953125 -1.5 " />
            </g>
        </g>
    </g>
    <g fill="#f1f5f9" fill-opacity="1">
        <g transform="translate(275.473297, 268.511788)">
            <g>
                <path
                    d="M 4.421875 -0.953125 L 4.625 -0.109375 C 4.03125 0.078125 3.535156 0.171875 3.140625 0.171875 C 2.523438 0.171875 2.082031 0.0078125 1.8125 -0.3125 C 1.550781 -0.644531 1.421875 -1.132812 1.421875 -1.78125 L 1.421875 -6.546875 L 0.296875 -6.546875 L 0.296875 -7.296875 C 1.171875 -7.316406 1.753906 -8.097656 2.046875 -9.640625 L 3 -9.640625 C 2.78125 -8.734375 2.671875 -8.019531 2.671875 -7.5 L 4.625 -7.5 L 4.359375 -6.546875 L 2.671875 -6.546875 L 2.671875 -1.75 C 2.671875 -1.425781 2.726562 -1.1875 2.84375 -1.03125 C 2.957031 -0.875 3.164062 -0.796875 3.46875 -0.796875 C 3.695312 -0.796875 4.015625 -0.847656 4.421875 -0.953125 Z M 4.421875 -0.953125 " />
            </g>
        </g>
    </g>
    <g fill="#f1f5f9" fill-opacity="1">
        <g transform="translate(281.079677, 268.511788)">
            <g>
                <path
                    d="M 0.765625 -0.4375 L 1.296875 -1.359375 C 1.878906 -0.953125 2.410156 -0.75 2.890625 -0.75 C 3.304688 -0.75 3.664062 -0.828125 3.96875 -0.984375 C 4.269531 -1.148438 4.421875 -1.425781 4.421875 -1.8125 C 4.421875 -2.113281 4.296875 -2.375 4.046875 -2.59375 C 3.804688 -2.820312 3.515625 -3.015625 3.171875 -3.171875 C 2.828125 -3.335938 2.484375 -3.507812 2.140625 -3.6875 C 1.796875 -3.863281 1.503906 -4.101562 1.265625 -4.40625 C 1.023438 -4.707031 0.90625 -5.066406 0.90625 -5.484375 C 0.90625 -6.191406 1.160156 -6.734375 1.671875 -7.109375 C 2.179688 -7.484375 2.804688 -7.671875 3.546875 -7.671875 C 4.304688 -7.671875 4.972656 -7.492188 5.546875 -7.140625 L 5.109375 -6.1875 C 4.640625 -6.539062 4.160156 -6.71875 3.671875 -6.71875 C 3.285156 -6.71875 2.941406 -6.640625 2.640625 -6.484375 C 2.335938 -6.328125 2.1875 -6.066406 2.1875 -5.703125 C 2.1875 -5.398438 2.304688 -5.132812 2.546875 -4.90625 C 2.785156 -4.675781 3.078125 -4.484375 3.421875 -4.328125 C 3.773438 -4.171875 4.125 -4.003906 4.46875 -3.828125 C 4.8125 -3.660156 5.101562 -3.421875 5.34375 -3.109375 C 5.59375 -2.796875 5.71875 -2.421875 5.71875 -1.984375 C 5.71875 -1.242188 5.460938 -0.691406 4.953125 -0.328125 C 4.441406 0.0234375 3.796875 0.203125 3.015625 0.203125 C 2.335938 0.203125 1.585938 -0.0078125 0.765625 -0.4375 Z M 0.765625 -0.4375 " />
            </g>
        </g>
    </g>
</svg>